<svg width="1200" height="800" viewBox="0 0 1200 800" fill="none" xmlns="http://www.w3.org/2000/svg">
  <!-- Background -->
  <rect width="1200" height="800" fill="#F8FAFC" />
  
  <!-- Header -->
  <rect y="0" width="1200" height="80" fill="white" />
  <rect x="40" y="25" width="120" height="30" rx="4" fill="#5D3FD3" />
  <rect x="800" y="30" width="60" height="20" rx="4" fill="#E2E8F0" />
  <rect x="880" y="30" width="60" height="20" rx="4" fill="#E2E8F0" />
  <rect x="960" y="30" width="60" height="20" rx="4" fill="#E2E8F0" />
  <rect x="1040" y="30" width="100" height="30" rx="15" fill="#5D3FD3" />
  
  <!-- Hero Section -->
  <rect y="80" width="1200" height="400" fill="white" />
  <rect x="100" y="150" width="500" height="60" rx="4" fill="#1E293B" />
  <rect x="100" y="230" width="450" height="30" rx="4" fill="#64748B" />
  <rect x="100" y="280" width="450" height="30" rx="4" fill="#64748B" />
  <rect x="100" y="350" width="180" height="50" rx="25" fill="#5D3FD3" />
  <rect x="700" y="130" width="400" height="300" rx="8" fill="#E2E8F0" />
  
  <!-- Features Section -->
  <rect y="480" width="1200" height="320" fill="#F8FAFC" />
  <rect x="300" y="520" width="600" height="40" rx="4" fill="#1E293B" />
  
  <!-- Feature Cards -->
  <rect x="100" y="580" width="300" height="180" rx="8" fill="white" stroke="#E2E8F0" />
  <rect x="130" y="610" width="60" height="60" rx="30" fill="#EDE9FE" />
  <rect x="130" y="690" width="240" height="15" rx="2" fill="#64748B" />
  <rect x="130" y="715" width="200" height="15" rx="2" fill="#64748B" />
  
  <rect x="450" y="580" width="300" height="180" rx="8" fill="white" stroke="#E2E8F0" />
  <rect x="480" y="610" width="60" height="60" rx="30" fill="#EDE9FE" />
  <rect x="480" y="690" width="240" height="15" rx="2" fill="#64748B" />
  <rect x="480" y="715" width="200" height="15" rx="2" fill="#64748B" />
  
  <rect x="800" y="580" width="300" height="180" rx="8" fill="white" stroke="#E2E8F0" />
  <rect x="830" y="610" width="60" height="60" rx="30" fill="#EDE9FE" />
  <rect x="830" y="690" width="240" height="15" rx="2" fill="#64748B" />
  <rect x="830" y="715" width="200" height="15" rx="2" fill="#64748B" />
</svg> 